<?xml version="1.0" encoding="iso-8859-1"?>
<!-- Uploaded to: SVG Repo, www.svgrepo.com, Generator: SVG Repo Mixer Tools -->
<svg height="800px" width="800px" version="1.1" id="Layer_1" xmlns="http://www.w3.org/2000/svg" xmlns:xlink="http://www.w3.org/1999/xlink" 
	 viewBox="0 0 512.001 512.001" xml:space="preserve">
<path style="fill:#4FC0E8;" d="M0.001,256.006c0,141.395,114.606,255.998,255.996,255.994
	c141.398,0.004,256.004-114.598,256.004-255.994C512.009,114.61,397.395,0,255.996,0C114.606,0,0.001,114.614,0.001,256.006z"/>
<path style="fill:#3DAED9;" d="M498.97,336.633L255.64,93.301l-0.002-0.001l-1.667-1.667c-0.634-0.636-1.393-1.142-2.235-1.494
	c-0.837-0.35-1.743-0.539-2.669-0.539H96.534c-3.829,0-6.933,3.104-6.933,6.933v291.2c0,2.347,1.243,4.32,3.027,5.574
	c0.463,0.658,112.783,112.978,113.441,113.441c0.118,0.167,0.297,0.272,0.427,0.427c16.02,3.139,32.561,4.827,49.502,4.826
	C369.212,512.003,465.185,438.501,498.97,336.633z"/>
<g>
	<path style="fill:#F4F6F9;" d="M103.467,103.467h138.667v62.4c0,3.829,3.104,6.933,6.933,6.933h62.4v48.533h13.867v-55.467
		c0-0.926-0.189-1.831-0.539-2.67c-0.352-0.842-0.859-1.6-1.494-2.235l-69.329-69.329c-0.635-0.635-1.393-1.142-2.235-1.494
		c-0.838-0.35-1.744-0.539-2.67-0.539H96.534c-3.829,0-6.933,3.104-6.933,6.933v291.2c0,3.829,3.104,6.933,6.933,6.933h138.667
		V380.8H103.467V103.467z M256.001,113.27l45.663,45.663h-45.663V113.27z"/>
	<path style="fill:#F4F6F9;" d="M332.267,242.133c-49.701,0-90.133,40.432-90.133,90.133s40.432,90.133,90.133,90.133
		s90.133-40.432,90.133-90.133S381.969,242.133,332.267,242.133z M332.267,408.533c-42.053,0-76.267-34.213-76.267-76.267
		S290.214,256,332.267,256s76.267,34.213,76.267,76.267S374.321,408.533,332.267,408.533z"/>
	<path style="fill:#F4F6F9;" d="M370.075,325.333h-30.875v-30.889c0-3.829-3.104-6.933-6.933-6.933
		c-3.829,0-6.933,3.104-6.933,6.933v30.889h-30.889c-3.829,0-6.933,3.104-6.933,6.933c0,3.829,3.104,6.933,6.933,6.933h30.889
		v30.889c0,3.829,3.104,6.933,6.933,6.933c3.829,0,6.933-3.104,6.933-6.933V339.2h30.875c3.829,0,6.933-3.104,6.933-6.933
		C377.009,328.437,373.905,325.333,370.075,325.333z"/>
</g>
</svg>