<?xml version="1.0" encoding="iso-8859-1"?>
<!-- Uploaded to: SVG Repo, www.svgrepo.com, Generator: SVG Repo Mixer Tools -->
<svg height="800px" width="800px" version="1.1" id="Layer_1" xmlns="http://www.w3.org/2000/svg" xmlns:xlink="http://www.w3.org/1999/xlink" 
	 viewBox="0 0 512 512" xml:space="preserve">
<path style="fill:#FFCD54;" d="M0,256.006C0,397.402,114.606,512.004,255.996,512C397.394,512.004,512,397.402,512,256.006
	C512.009,114.61,397.394,0,255.996,0C114.606,0,0,114.614,0,256.006z"/>
<path style="fill:#F4BA41;" d="M507.518,303.58L295.574,91.636c-0.636-0.637-1.394-1.146-2.238-1.498
	c-0.837-0.35-1.742-0.539-2.67-0.539H138.133c-3.833,0-6.933,3.105-6.933,6.933v318.933c0,2.348,1.242,4.32,3.027,5.574
	c0.462,0.657,87.758,87.953,88.415,88.416c0.098,0.14,0.249,0.225,0.355,0.355c10.811,1.392,21.809,2.188,32.998,2.188
	C381.13,512.003,485.212,422.226,507.518,303.58z"/>
<g>
	<path style="fill:#F4F6F9;" d="M380.262,177.066c-0.352-0.844-0.861-1.603-1.498-2.239l-83.189-83.189
		c-0.635-0.637-1.394-1.146-2.238-1.498c-0.838-0.351-1.743-0.54-2.671-0.54H138.133c-3.833,0-6.933,3.104-6.933,6.933v318.933
		c0,3.829,3.101,6.933,6.933,6.933h235.733c3.833,0,6.933-3.104,6.933-6.933V179.733C380.8,178.809,380.611,177.904,380.262,177.066
		z M297.6,113.27l59.53,59.53H297.6V113.27z M145.067,408.533V103.467h138.667v76.267c0,3.829,3.101,6.933,6.933,6.933h76.267
		v221.867H145.067z"/>
	<path style="fill:#F4F6F9;" d="M193.6,200.533H256c3.833,0,6.933-3.104,6.933-6.933s-3.101-6.933-6.933-6.933h-62.4
		c-3.833,0-6.933,3.104-6.933,6.933S189.767,200.533,193.6,200.533z"/>
	<path style="fill:#F4F6F9;" d="M318.4,228.267H193.6c-3.833,0-6.933,3.104-6.933,6.933s3.101,6.933,6.933,6.933h124.8
		c3.833,0,6.933-3.104,6.933-6.933S322.233,228.267,318.4,228.267z"/>
	<path style="fill:#F4F6F9;" d="M318.4,269.867H193.6c-3.833,0-6.933,3.104-6.933,6.933c0,3.829,3.101,6.933,6.933,6.933h124.8
		c3.833,0,6.933-3.104,6.933-6.933C325.333,272.971,322.233,269.867,318.4,269.867z"/>
	<path style="fill:#F4F6F9;" d="M318.4,311.467H193.6c-3.833,0-6.933,3.104-6.933,6.933c0,3.829,3.101,6.933,6.933,6.933h124.8
		c3.833,0,6.933-3.104,6.933-6.933C325.333,314.571,322.233,311.467,318.4,311.467z"/>
	<path style="fill:#F4F6F9;" d="M318.4,353.067H193.6c-3.833,0-6.933,3.104-6.933,6.933c0,3.829,3.101,6.933,6.933,6.933h124.8
		c3.833,0,6.933-3.104,6.933-6.933C325.333,356.171,322.233,353.067,318.4,353.067z"/>
</g>
</svg>