<?xml version="1.0" encoding="iso-8859-1"?>
<!-- Uploaded to: SVG Repo, www.svgrepo.com, Generator: SVG Repo Mixer Tools -->
<svg height="800px" width="800px" version="1.1" id="Layer_1" xmlns="http://www.w3.org/2000/svg" xmlns:xlink="http://www.w3.org/1999/xlink" 
	 viewBox="0 0 512 512" xml:space="preserve">
<path style="fill:#FA6E51;" d="M512,256.006C512,397.402,397.394,512.004,256.004,512C114.606,512.004,0,397.402,0,256.006
	C-0.007,114.61,114.606,0,256.004,0C397.394,0,512,114.614,512,256.006z"/>
<path style="fill:#E8573F;" d="M497.589,340.715L248.443,91.568c-0.635-0.636-1.394-1.142-2.235-1.494
	c-0.838-0.351-1.744-0.539-2.669-0.539H91.006c-3.829,0-6.933,3.104-6.933,6.933v291.2c0,2.348,1.243,4.32,3.027,5.574
	c0.462,0.657,111.115,111.31,111.772,111.772c0.183,0.261,0.45,0.433,0.661,0.661c18.176,4.093,37.058,6.325,56.471,6.324
	C367.697,512.003,462.619,440.461,497.589,340.715z"/>
<g>
	<path style="fill:#F4F6F9;" d="M268.652,339c0.721,0.24,1.459,0.355,2.18,0.355c2.908,0,5.616-1.845,6.581-4.756
		c7.302-22.022,26.805-36.82,48.537-36.82c19.305,0,37.696,11.157,47.12,27.489h-18.597c-3.829,0-6.933,3.104-6.933,6.933
		c0,3.829,3.104,6.933,6.933,6.933h34.667c3.829,0,6.933-3.104,6.933-6.933v-34.667c0-3.829-3.104-6.933-6.933-6.933
		c-3.829,0-6.933,3.104-6.933,6.933v16.226c-12.512-17.954-33.933-29.849-56.256-29.849c-27.719,0-52.514,18.617-61.699,46.326
		C263.045,333.87,265.015,337.794,268.652,339z"/>
	<path style="fill:#F4F6F9;" d="M391.636,367.02c-3.636-1.235-7.567,0.704-8.799,4.33c-7.509,22.055-27.615,36.874-50.033,36.874
		c-19.894,0-38.836-11.156-48.545-27.489h21.679c3.829,0,6.933-3.104,6.933-6.933c0-3.829-3.104-6.933-6.933-6.933h-34.667
		c-3.829,0-6.933,3.104-6.933,6.933v34.667c0,3.829,3.104,6.933,6.933,6.933c3.829,0,6.933-3.104,6.933-6.933v-12.313
		c13.083,15.742,33.45,25.936,54.601,25.936c28.356,0,53.737-18.596,63.162-46.272C397.199,372.193,395.263,368.256,391.636,367.02z
		"/>
	<path style="fill:#F4F6F9;" d="M243.538,172.734h62.4v69.333h13.867v-76.267c0-0.926-0.189-1.831-0.539-2.67
		c-0.352-0.842-0.859-1.6-1.494-2.235l-69.329-69.329c-0.635-0.635-1.393-1.142-2.235-1.494c-0.838-0.35-1.744-0.539-2.67-0.539
		H91.005c-3.829,0-6.933,3.104-6.933,6.933v291.2c0,3.829,3.104,6.933,6.933,6.933h152.533v-13.867h-145.6V103.401h138.667v62.4
		C236.605,169.63,239.71,172.734,243.538,172.734z M250.471,113.205l45.663,45.663h-45.663L250.471,113.205L250.471,113.205z"/>
</g>
</svg>